<?xml version="1.0" encoding="UTF-8" standalone="no"?>
<!DOCTYPE svg PUBLIC "-//W3C//DTD SVG 1.1//EN" "http://www.w3.org/Graphics/SVG/1.1/DTD/svg11.dtd">
<!-- Created with Vectornator (http://vectornator.io/) -->
<svg height="100%" stroke-miterlimit="10" style="fill-rule:nonzero;clip-rule:evenodd;stroke-linecap:round;stroke-linejoin:round;" version="1.1" viewBox="188.236 284 703.525 512" width="100%" xml:space="preserve" xmlns="http://www.w3.org/2000/svg" xmlns:vectornator="http://vectornator.io" xmlns:xlink="http://www.w3.org/1999/xlink">
<defs/>
<g id="Layer">
<path d="M540 284C398.615 284 284 398.615 284 540C284 541.832 284.118 543.646 284.156 545.469C256.989 558.421 234.718 571.01 219.031 582.719C208.864 590.308 201.184 597.666 196.031 604.938C189.395 614.303 186.578 624.146 189.219 634C191.672 643.155 198.257 649.993 207.562 654.75C214.811 658.455 223.97 661.038 235.094 662.719C255.255 665.766 282.564 665.92 315.625 663.312C359.184 742.407 443.323 796 540 796C681.385 796 796 681.385 796 540C796 538.21 795.912 536.438 795.875 534.656C825.862 520.366 849.45 506.579 865.406 493.844C874.199 486.826 880.857 479.989 885.281 473.156C890.962 464.383 893.234 455.155 890.781 446C888.167 436.243 880.927 429.165 870.656 424.375C862.68 420.655 852.514 418.142 840.125 416.625C828.751 415.232 815.342 414.664 800.125 414.906C789.229 415.08 777.103 415.82 764.438 416.812C720.898 337.651 636.727 284 540 284ZM540 316C655.14 316 749.94 402.881 762.531 514.656C706.016 539.692 632.288 565.112 552.469 586.5C472.619 607.896 396.035 622.771 334.562 629.344C322.639 601.968 316 571.766 316 540C316 416.288 416.288 316 540 316ZM799.938 446.906C814.002 446.657 826.197 447.147 836.219 448.375C845.548 449.518 852.631 451.279 857.125 453.375C858.091 453.826 858.465 454.154 859.031 454.531C858.819 454.951 858.801 455.189 858.438 455.75C856.146 459.289 851.756 463.769 845.438 468.812C833.578 478.278 815.551 489.019 792.938 500.344C790.102 482.105 785.285 464.532 778.812 447.781C786.224 447.337 793.326 447.023 799.938 446.906ZM763.781 549C759.053 668.535 660.694 764 540 764C460.305 764 390.392 722.346 350.688 659.656C411.6 652.298 484.753 637.77 560.75 617.406C636.745 597.043 707.353 573.082 763.781 549ZM287.031 579.594C289.861 597.823 294.694 615.382 301.156 632.125C275.896 633.631 254.881 633.362 239.875 631.094C231.881 629.886 225.879 628.169 222.125 626.25C221.54 625.951 221.391 625.786 221 625.531C221.316 624.89 221.467 624.366 222.125 623.438C225.064 619.29 230.479 614.129 238.188 608.375C249.995 599.562 266.639 589.798 287.031 579.594Z" fill="#111111" fill-rule="nonzero" opacity="1" stroke="none"/>
</g>
</svg>
