<?xml version="1.0" encoding="UTF-8" standalone="no"?>
<!DOCTYPE svg PUBLIC "-//W3C//DTD SVG 1.1//EN" "http://www.w3.org/Graphics/SVG/1.1/DTD/svg11.dtd">
<!-- Created with Vectornator (http://vectornator.io/) -->
<svg height="100%" stroke-miterlimit="10" style="fill-rule:nonzero;clip-rule:evenodd;stroke-linecap:round;stroke-linejoin:round;" version="1.1" viewBox="105.25 215.844 869.5 648.312" width="100%" xml:space="preserve" xmlns="http://www.w3.org/2000/svg" xmlns:vectornator="http://vectornator.io" xmlns:xlink="http://www.w3.org/1999/xlink">
<defs/>
<g id="Layer">
<path d="M974.75 215.844C974.75 215.844 967.754 223.563 939.656 254.75C912.014 285.431 861.327 326.725 754.969 383.781C760.276 391.078 765.316 398.577 769.875 406.406C780.387 405.647 790.605 405.055 799.969 404.906C810.903 404.732 820.659 405.117 829.844 405.781C944.21 310.311 974.75 215.844 974.75 215.844ZM707.812 407.656C606.579 455.405 488.824 491.936 366.375 531.938C352.742 536.391 339.34 541.129 326.156 546C326.413 554.938 327.372 563.67 328.719 572.281C347.099 567.846 365.46 563.458 383.969 558.656C447.932 542.062 572.992 513.213 651.844 482.25C680.549 470.978 708.076 457.84 731.625 445.656C724.974 432.138 717.043 419.381 707.812 407.656ZM737.469 458.5C709.63 479.312 678.375 502.288 661.656 513.562C648.912 522.157 615.389 544.197 577.781 568.875C593.081 564.507 608.037 560.073 622.656 555.469C657.774 532.738 697.418 506.314 742.938 473C741.314 468.069 739.433 463.265 737.469 458.5ZM182.375 608.656C135.2 632.222 105.25 650.094 105.25 650.094L115.812 654.281C115.813 654.281 121.576 647.489 178.594 621.531C179.178 617.088 180.499 612.772 182.375 608.656ZM484.125 646.188C472.22 648.799 460.477 651.294 448.938 653.563C440.219 659.305 431.821 664.79 423.312 670.406C412.727 677.394 401.852 685.156 390.906 693.312C394.698 697.006 398.632 700.531 402.688 703.938C430.869 683.343 458.843 663.573 484.125 646.188ZM349.75 725.594C275.786 786.484 208.875 854.938 208.875 854.938L208.875 864.156C208.875 864.156 221.813 849.997 294.781 787.844C314.246 771.264 336.65 753.49 360.094 735.625C356.562 732.37 353.102 729.033 349.75 725.594Z" fill="#111111" fill-rule="nonzero" opacity="1" stroke="none"/>
</g>
</svg>
